<svg width="1124" height="694" viewBox="0 0 1124 694" fill="none" xmlns="http://www.w3.org/2000/svg">
<foreignObject x="381.984" y="-180" width="416.199" height="1054"><div xmlns="http://www.w3.org/1999/xhtml" style="backdrop-filter:blur(90px);clip-path:url(#bgblur_0_1333_1009_clip_path);height:100%;width:100%"></div></foreignObject><g data-figma-bg-blur-radius="180">
<path d="M561.984 7.62939e-06H618.183V694H561.984V7.62939e-06Z" fill="#252525" style="mix-blend-mode:overlay"/>
</g>
<foreignObject x="562.125" y="-40" width="120.141" height="774"><div xmlns="http://www.w3.org/1999/xhtml" style="backdrop-filter:blur(20px);clip-path:url(#bgblur_1_1333_1009_clip_path);height:100%;width:100%"></div></foreignObject><g data-figma-bg-blur-radius="40">
<path d="M602.125 0H642.267V694H602.125V0Z" fill="#252525" style="mix-blend-mode:overlay"/>
</g>
<foreignObject x="602.27" y="-40" width="120.141" height="774"><div xmlns="http://www.w3.org/1999/xhtml" style="backdrop-filter:blur(20px);clip-path:url(#bgblur_2_1333_1009_clip_path);height:100%;width:100%"></div></foreignObject><g data-figma-bg-blur-radius="40">
<path d="M642.27 7.62939e-06H682.411V694H642.27V7.62939e-06Z" fill="#252525" style="mix-blend-mode:overlay"/>
</g>
<foreignObject x="642.414" y="-40" width="120.141" height="774"><div xmlns="http://www.w3.org/1999/xhtml" style="backdrop-filter:blur(20px);clip-path:url(#bgblur_3_1333_1009_clip_path);height:100%;width:100%"></div></foreignObject><g data-figma-bg-blur-radius="40">
<path d="M682.414 0H722.556V694H682.414V0Z" fill="#252525" style="mix-blend-mode:overlay"/>
</g>
<foreignObject x="682.551" y="-40" width="120.141" height="774"><div xmlns="http://www.w3.org/1999/xhtml" style="backdrop-filter:blur(20px);clip-path:url(#bgblur_4_1333_1009_clip_path);height:100%;width:100%"></div></foreignObject><g data-figma-bg-blur-radius="40">
<path d="M722.551 0H762.692V694H722.551V0Z" fill="#252525" style="mix-blend-mode:overlay"/>
</g>
<foreignObject x="722.691" y="-40" width="120.141" height="774"><div xmlns="http://www.w3.org/1999/xhtml" style="backdrop-filter:blur(20px);clip-path:url(#bgblur_5_1333_1009_clip_path);height:100%;width:100%"></div></foreignObject><g data-figma-bg-blur-radius="40">
<path d="M762.691 7.62939e-06H802.833V694H762.691V7.62939e-06Z" fill="#252525" style="mix-blend-mode:overlay"/>
</g>
<foreignObject x="762.836" y="-40" width="120.141" height="774"><div xmlns="http://www.w3.org/1999/xhtml" style="backdrop-filter:blur(20px);clip-path:url(#bgblur_6_1333_1009_clip_path);height:100%;width:100%"></div></foreignObject><g data-figma-bg-blur-radius="40">
<path d="M802.836 0H842.978V694H802.836V0Z" fill="#252525" style="mix-blend-mode:overlay"/>
</g>
<foreignObject x="923.402" y="-40" width="120.141" height="774"><div xmlns="http://www.w3.org/1999/xhtml" style="backdrop-filter:blur(20px);clip-path:url(#bgblur_7_1333_1009_clip_path);height:100%;width:100%"></div></foreignObject><g data-figma-bg-blur-radius="40">
<path d="M963.402 0H1003.54V694H963.402V0Z" fill="#252525" style="mix-blend-mode:overlay"/>
</g>
<foreignObject x="802.977" y="-40" width="120.141" height="774"><div xmlns="http://www.w3.org/1999/xhtml" style="backdrop-filter:blur(20px);clip-path:url(#bgblur_8_1333_1009_clip_path);height:100%;width:100%"></div></foreignObject><g data-figma-bg-blur-radius="40">
<path d="M842.977 7.62939e-06H883.118V694H842.977V7.62939e-06Z" fill="#252525" style="mix-blend-mode:overlay"/>
</g>
<foreignObject x="963.543" y="-40" width="120.141" height="774"><div xmlns="http://www.w3.org/1999/xhtml" style="backdrop-filter:blur(20px);clip-path:url(#bgblur_9_1333_1009_clip_path);height:100%;width:100%"></div></foreignObject><g data-figma-bg-blur-radius="40">
<path d="M1003.54 0H1043.68V694H1003.54V0Z" fill="#252525" style="mix-blend-mode:overlay"/>
</g>
<foreignObject x="521.984" y="-40" width="120.141" height="774"><div xmlns="http://www.w3.org/1999/xhtml" style="backdrop-filter:blur(20px);clip-path:url(#bgblur_10_1333_1009_clip_path);height:100%;width:100%"></div></foreignObject><g data-figma-bg-blur-radius="40">
<path d="M561.984 7.62939e-06H602.126V694H561.984V7.62939e-06Z" fill="#252525" style="mix-blend-mode:overlay"/>
</g>
<foreignObject x="843.117" y="-40" width="120.141" height="774"><div xmlns="http://www.w3.org/1999/xhtml" style="backdrop-filter:blur(20px);clip-path:url(#bgblur_11_1333_1009_clip_path);height:100%;width:100%"></div></foreignObject><g data-figma-bg-blur-radius="40">
<path d="M883.117 0H923.259V694H883.117V0Z" fill="#252525" style="mix-blend-mode:overlay"/>
</g>
<foreignObject x="1003.68" y="-40" width="120.141" height="774"><div xmlns="http://www.w3.org/1999/xhtml" style="backdrop-filter:blur(20px);clip-path:url(#bgblur_12_1333_1009_clip_path);height:100%;width:100%"></div></foreignObject><g data-figma-bg-blur-radius="40">
<path d="M1043.68 7.62939e-06H1083.83V694H1043.68V7.62939e-06Z" fill="#252525" style="mix-blend-mode:overlay"/>
</g>
<foreignObject x="883.258" y="-40" width="120.141" height="774"><div xmlns="http://www.w3.org/1999/xhtml" style="backdrop-filter:blur(20px);clip-path:url(#bgblur_13_1333_1009_clip_path);height:100%;width:100%"></div></foreignObject><g data-figma-bg-blur-radius="40">
<path d="M923.258 7.62939e-06H963.399V694H923.258V7.62939e-06Z" fill="#252525" style="mix-blend-mode:overlay"/>
</g>
<foreignObject x="903.828" y="-180" width="400.141" height="1054"><div xmlns="http://www.w3.org/1999/xhtml" style="backdrop-filter:blur(90px);clip-path:url(#bgblur_14_1333_1009_clip_path);height:100%;width:100%"></div></foreignObject><g data-figma-bg-blur-radius="180">
<path d="M1083.83 0H1123.97V694H1083.83V0Z" fill="#252525" style="mix-blend-mode:overlay"/>
</g>
<foreignObject x="-180" y="-180" width="416.199" height="1054"><div xmlns="http://www.w3.org/1999/xhtml" style="backdrop-filter:blur(90px);clip-path:url(#bgblur_15_1333_1009_clip_path);height:100%;width:100%"></div></foreignObject><g data-figma-bg-blur-radius="180">
<path d="M0 7.62939e-06H56.1983V694H0V7.62939e-06Z" fill="#252525" style="mix-blend-mode:overlay"/>
</g>
<foreignObject x="0.140625" y="-40" width="120.141" height="774"><div xmlns="http://www.w3.org/1999/xhtml" style="backdrop-filter:blur(20px);clip-path:url(#bgblur_16_1333_1009_clip_path);height:100%;width:100%"></div></foreignObject><g data-figma-bg-blur-radius="40">
<path d="M40.1406 0H80.2823V694H40.1406V0Z" fill="#252525" style="mix-blend-mode:overlay"/>
</g>
<foreignObject x="40.2852" y="-40" width="120.141" height="774"><div xmlns="http://www.w3.org/1999/xhtml" style="backdrop-filter:blur(20px);clip-path:url(#bgblur_17_1333_1009_clip_path);height:100%;width:100%"></div></foreignObject><g data-figma-bg-blur-radius="40">
<path d="M80.2852 7.62939e-06H120.427V694H80.2852V7.62939e-06Z" fill="#252525" style="mix-blend-mode:overlay"/>
</g>
<foreignObject x="80.4297" y="-40" width="120.141" height="774"><div xmlns="http://www.w3.org/1999/xhtml" style="backdrop-filter:blur(20px);clip-path:url(#bgblur_18_1333_1009_clip_path);height:100%;width:100%"></div></foreignObject><g data-figma-bg-blur-radius="40">
<path d="M120.43 0H160.571V694H120.43V0Z" fill="#252525" style="mix-blend-mode:overlay"/>
</g>
<foreignObject x="120.57" y="-40" width="120.141" height="774"><div xmlns="http://www.w3.org/1999/xhtml" style="backdrop-filter:blur(20px);clip-path:url(#bgblur_19_1333_1009_clip_path);height:100%;width:100%"></div></foreignObject><g data-figma-bg-blur-radius="40">
<path d="M160.57 0H200.712V694H160.57V0Z" fill="#252525" style="mix-blend-mode:overlay"/>
</g>
<foreignObject x="160.707" y="-40" width="120.141" height="774"><div xmlns="http://www.w3.org/1999/xhtml" style="backdrop-filter:blur(20px);clip-path:url(#bgblur_20_1333_1009_clip_path);height:100%;width:100%"></div></foreignObject><g data-figma-bg-blur-radius="40">
<path d="M200.707 7.62939e-06H240.849V694H200.707V7.62939e-06Z" fill="#252525" style="mix-blend-mode:overlay"/>
</g>
<foreignObject x="200.852" y="-40" width="120.141" height="774"><div xmlns="http://www.w3.org/1999/xhtml" style="backdrop-filter:blur(20px);clip-path:url(#bgblur_21_1333_1009_clip_path);height:100%;width:100%"></div></foreignObject><g data-figma-bg-blur-radius="40">
<path d="M240.852 0H280.993V694H240.852V0Z" fill="#252525" style="mix-blend-mode:overlay"/>
</g>
<foreignObject x="361.422" y="-40" width="120.141" height="774"><div xmlns="http://www.w3.org/1999/xhtml" style="backdrop-filter:blur(20px);clip-path:url(#bgblur_22_1333_1009_clip_path);height:100%;width:100%"></div></foreignObject><g data-figma-bg-blur-radius="40">
<path d="M401.422 0H441.564V694H401.422V0Z" fill="#252525" style="mix-blend-mode:overlay"/>
</g>
<foreignObject x="240.992" y="-40" width="120.141" height="774"><div xmlns="http://www.w3.org/1999/xhtml" style="backdrop-filter:blur(20px);clip-path:url(#bgblur_23_1333_1009_clip_path);height:100%;width:100%"></div></foreignObject><g data-figma-bg-blur-radius="40">
<path d="M280.992 7.62939e-06H321.134V694H280.992V7.62939e-06Z" fill="#252525" style="mix-blend-mode:overlay"/>
</g>
<foreignObject x="401.562" y="-40" width="120.141" height="774"><div xmlns="http://www.w3.org/1999/xhtml" style="backdrop-filter:blur(20px);clip-path:url(#bgblur_24_1333_1009_clip_path);height:100%;width:100%"></div></foreignObject><g data-figma-bg-blur-radius="40">
<path d="M441.562 0H481.704V694H441.562V0Z" fill="#252525" style="mix-blend-mode:overlay"/>
</g>
<foreignObject x="-40" y="-40" width="120.141" height="774"><div xmlns="http://www.w3.org/1999/xhtml" style="backdrop-filter:blur(20px);clip-path:url(#bgblur_25_1333_1009_clip_path);height:100%;width:100%"></div></foreignObject><g data-figma-bg-blur-radius="40">
<path d="M0 7.62939e-06H40.1417V694H0V7.62939e-06Z" fill="#252525" style="mix-blend-mode:overlay"/>
</g>
<foreignObject x="281.133" y="-40" width="120.141" height="774"><div xmlns="http://www.w3.org/1999/xhtml" style="backdrop-filter:blur(20px);clip-path:url(#bgblur_26_1333_1009_clip_path);height:100%;width:100%"></div></foreignObject><g data-figma-bg-blur-radius="40">
<path d="M321.133 0H361.274V694H321.133V0Z" fill="#252525" style="mix-blend-mode:overlay"/>
</g>
<foreignObject x="441.699" y="-40" width="120.141" height="774"><div xmlns="http://www.w3.org/1999/xhtml" style="backdrop-filter:blur(20px);clip-path:url(#bgblur_27_1333_1009_clip_path);height:100%;width:100%"></div></foreignObject><g data-figma-bg-blur-radius="40">
<path d="M481.699 7.62939e-06H521.841V694H481.699V7.62939e-06Z" fill="#252525" style="mix-blend-mode:overlay"/>
</g>
<foreignObject x="321.277" y="-40" width="120.141" height="774"><div xmlns="http://www.w3.org/1999/xhtml" style="backdrop-filter:blur(20px);clip-path:url(#bgblur_28_1333_1009_clip_path);height:100%;width:100%"></div></foreignObject><g data-figma-bg-blur-radius="40">
<path d="M361.277 7.62939e-06H401.419V694H361.277V7.62939e-06Z" fill="#252525" style="mix-blend-mode:overlay"/>
</g>
<foreignObject x="341.844" y="-180" width="400.141" height="1054"><div xmlns="http://www.w3.org/1999/xhtml" style="backdrop-filter:blur(90px);clip-path:url(#bgblur_29_1333_1009_clip_path);height:100%;width:100%"></div></foreignObject><g data-figma-bg-blur-radius="180">
<path d="M521.844 0H561.985V694H521.844V0Z" fill="#252525" style="mix-blend-mode:overlay"/>
</g>
<defs>
<clipPath id="bgblur_0_1333_1009_clip_path" transform="translate(-381.984 180)"><path d="M561.984 7.62939e-06H618.183V694H561.984V7.62939e-06Z"/>
</clipPath><clipPath id="bgblur_1_1333_1009_clip_path" transform="translate(-562.125 40)"><path d="M602.125 0H642.267V694H602.125V0Z"/>
</clipPath><clipPath id="bgblur_2_1333_1009_clip_path" transform="translate(-602.27 40)"><path d="M642.27 7.62939e-06H682.411V694H642.27V7.62939e-06Z"/>
</clipPath><clipPath id="bgblur_3_1333_1009_clip_path" transform="translate(-642.414 40)"><path d="M682.414 0H722.556V694H682.414V0Z"/>
</clipPath><clipPath id="bgblur_4_1333_1009_clip_path" transform="translate(-682.551 40)"><path d="M722.551 0H762.692V694H722.551V0Z"/>
</clipPath><clipPath id="bgblur_5_1333_1009_clip_path" transform="translate(-722.691 40)"><path d="M762.691 7.62939e-06H802.833V694H762.691V7.62939e-06Z"/>
</clipPath><clipPath id="bgblur_6_1333_1009_clip_path" transform="translate(-762.836 40)"><path d="M802.836 0H842.978V694H802.836V0Z"/>
</clipPath><clipPath id="bgblur_7_1333_1009_clip_path" transform="translate(-923.402 40)"><path d="M963.402 0H1003.54V694H963.402V0Z"/>
</clipPath><clipPath id="bgblur_8_1333_1009_clip_path" transform="translate(-802.977 40)"><path d="M842.977 7.62939e-06H883.118V694H842.977V7.62939e-06Z"/>
</clipPath><clipPath id="bgblur_9_1333_1009_clip_path" transform="translate(-963.543 40)"><path d="M1003.54 0H1043.68V694H1003.54V0Z"/>
</clipPath><clipPath id="bgblur_10_1333_1009_clip_path" transform="translate(-521.984 40)"><path d="M561.984 7.62939e-06H602.126V694H561.984V7.62939e-06Z"/>
</clipPath><clipPath id="bgblur_11_1333_1009_clip_path" transform="translate(-843.117 40)"><path d="M883.117 0H923.259V694H883.117V0Z"/>
</clipPath><clipPath id="bgblur_12_1333_1009_clip_path" transform="translate(-1003.68 40)"><path d="M1043.68 7.62939e-06H1083.83V694H1043.68V7.62939e-06Z"/>
</clipPath><clipPath id="bgblur_13_1333_1009_clip_path" transform="translate(-883.258 40)"><path d="M923.258 7.62939e-06H963.399V694H923.258V7.62939e-06Z"/>
</clipPath><clipPath id="bgblur_14_1333_1009_clip_path" transform="translate(-903.828 180)"><path d="M1083.83 0H1123.97V694H1083.83V0Z"/>
</clipPath><clipPath id="bgblur_15_1333_1009_clip_path" transform="translate(180 180)"><path d="M0 7.62939e-06H56.1983V694H0V7.62939e-06Z"/>
</clipPath><clipPath id="bgblur_16_1333_1009_clip_path" transform="translate(-0.140625 40)"><path d="M40.1406 0H80.2823V694H40.1406V0Z"/>
</clipPath><clipPath id="bgblur_17_1333_1009_clip_path" transform="translate(-40.2852 40)"><path d="M80.2852 7.62939e-06H120.427V694H80.2852V7.62939e-06Z"/>
</clipPath><clipPath id="bgblur_18_1333_1009_clip_path" transform="translate(-80.4297 40)"><path d="M120.43 0H160.571V694H120.43V0Z"/>
</clipPath><clipPath id="bgblur_19_1333_1009_clip_path" transform="translate(-120.57 40)"><path d="M160.57 0H200.712V694H160.57V0Z"/>
</clipPath><clipPath id="bgblur_20_1333_1009_clip_path" transform="translate(-160.707 40)"><path d="M200.707 7.62939e-06H240.849V694H200.707V7.62939e-06Z"/>
</clipPath><clipPath id="bgblur_21_1333_1009_clip_path" transform="translate(-200.852 40)"><path d="M240.852 0H280.993V694H240.852V0Z"/>
</clipPath><clipPath id="bgblur_22_1333_1009_clip_path" transform="translate(-361.422 40)"><path d="M401.422 0H441.564V694H401.422V0Z"/>
</clipPath><clipPath id="bgblur_23_1333_1009_clip_path" transform="translate(-240.992 40)"><path d="M280.992 7.62939e-06H321.134V694H280.992V7.62939e-06Z"/>
</clipPath><clipPath id="bgblur_24_1333_1009_clip_path" transform="translate(-401.562 40)"><path d="M441.562 0H481.704V694H441.562V0Z"/>
</clipPath><clipPath id="bgblur_25_1333_1009_clip_path" transform="translate(40 40)"><path d="M0 7.62939e-06H40.1417V694H0V7.62939e-06Z"/>
</clipPath><clipPath id="bgblur_26_1333_1009_clip_path" transform="translate(-281.133 40)"><path d="M321.133 0H361.274V694H321.133V0Z"/>
</clipPath><clipPath id="bgblur_27_1333_1009_clip_path" transform="translate(-441.699 40)"><path d="M481.699 7.62939e-06H521.841V694H481.699V7.62939e-06Z"/>
</clipPath><clipPath id="bgblur_28_1333_1009_clip_path" transform="translate(-321.277 40)"><path d="M361.277 7.62939e-06H401.419V694H361.277V7.62939e-06Z"/>
</clipPath><clipPath id="bgblur_29_1333_1009_clip_path" transform="translate(-341.844 180)"><path d="M521.844 0H561.985V694H521.844V0Z"/>
</clipPath></defs>
</svg>
